<!-- icon666.com - MILLIONS OF FREE VECTOR ICONS --><svg id="Layer_1" enable-background="new 0 0 32 32" viewBox="0 0 32 32" xmlns="http://www.w3.org/2000/svg"><circle cx="14.68" cy="11.96" fill="#e6e7e8" r="6" style="fill: rgb(255, 255, 255);"></circle><path d="m23.16 24.27-4.51-7.82c-.59.52-1.28.93-2.04 1.19l4.51 7.81c.32.56 1.05.76 1.61.43.56-.32.76-1.05.43-1.61z" fill="#e6e7e8" style="fill: rgb(255, 255, 255);"></path><path d="m23.6 24.02-4.32-7.48c1.17-1.18 1.9-2.8 1.9-4.59 0-3.58-2.92-6.5-6.5-6.5s-6.5 2.92-6.5 6.5 2.92 6.5 6.5 6.5c.59 0 1.16-.09 1.7-.23l4.31 7.47c.22.39.58.67 1.02.78.15.04.29.06.44.06.29 0 .58-.08.83-.22.39-.22.67-.58.78-1.02.12-.43.06-.88-.16-1.27zm-14.42-12.06c0-3.03 2.47-5.5 5.5-5.5s5.5 2.47 5.5 5.5c0 1.65-.73 3.12-1.88 4.13-.26.23-.54.43-.83.6-.02.01-.03.02-.05.03-.3.17-.62.32-.96.44-.01 0-.02.01-.02.01l-.16.05c-.51.15-1.04.24-1.6.24-3.03 0-5.5-2.47-5.5-5.5zm13.62 13.08c-.05.18-.16.32-.32.41s-.34.11-.51.07c-.18-.05-.32-.16-.41-.32l-4.22-7.31c.03-.01.05-.03.08-.04.16-.08.32-.16.48-.25.05-.03.09-.06.14-.09l.42-.27c.02-.01.04-.02.06-.04l4.22 7.31c.08.17.1.35.06.53z" fill="#000000" style="fill: rgb(13, 12, 12);"></path></svg>